General

Format                           : MPEG-4
Format profile                   : Base Media
Codec ID                         : isom
File size                        : 83.9 MiB
Duration                         : 4mn 7s
Overall bit rate                 : 2 847 Kbps
Encoded date                     : UTC 2012-06-23 06:44:25
Tagged date                      : UTC 2012-06-23 06:44:25

Video
ID                               : 1
Format                           : AVC
Format/Info                      : Advanced Video Codec
Format profile                   : High@L3.0
Format settings, CABAC           : Yes
Format settings, ReFrames        : 2 frames
Codec ID                         : avc1
Codec ID/Info                    : Advanced Video Coding
Duration                         : 4mn 7s
Bit rate mode                    : Variable
Bit rate                         : 2 708 Kbps
Maximum bit rate                 : 4 504 Kbps
Width                            : 720 pixels
Height                           : 480 pixels
Display aspect ratio             : 16:9
Original display aspect ratio    : 16:9
Frame rate mode                  : Constant
Frame rate                       : 25.000 fps
Standard                         : NTSC
Color space                      : YUV
Chroma subsampling               : 4:2:0
Bit depth                        : 8 bits
Scan type                        : Progressive
Bits/(Pixel*Frame)               : 0.313
Stream size                      : 81.6 MiB (97%)


Audio
ID                               : 2
Format                           : AAC
Format/Info                      : Advanced Audio Codec
Format profile                   : LC
Codec ID                         : 40
Duration                         : 4mn 6s
Bit rate mode                    : Variable
Bit rate                         : 68.7 Kbps
Maximum bit rate                 : 80.9 Kbps
Channel(s)                       : 2 channels
Channel positions                : Front: L R
Sampling rate                    : 44.1 KHz
Compression mode                 : Lossy
Stream size                      : 2.02 MiB (2%)